<?xml version="1.0" encoding="UTF-8" standalone="no"?>
<!-- Created with Inkscape (http://www.inkscape.org/) -->

<svg
   xmlns:dc="http://purl.org/dc/elements/1.1/"
   xmlns:cc="http://creativecommons.org/ns#"
   xmlns:rdf="http://www.w3.org/1999/02/22-rdf-syntax-ns#"
   xmlns:svg="http://www.w3.org/2000/svg"
   xmlns="http://www.w3.org/2000/svg"
   xmlns:sodipodi="http://sodipodi.sourceforge.net/DTD/sodipodi-0.dtd"
   xmlns:inkscape="http://www.inkscape.org/namespaces/inkscape"
   width="64px"
   height="64px"
   id="svg2816"
   version="1.1"
   inkscape:version="0.47 r22583"
   sodipodi:docname="Open Down.png">
  <defs
     id="defs2818">
    <inkscape:perspective
       sodipodi:type="inkscape:persp3d"
       inkscape:vp_x="0 : 32 : 1"
       inkscape:vp_y="0 : 1000 : 0"
       inkscape:vp_z="64 : 32 : 1"
       inkscape:persp3d-origin="32 : 21.333333 : 1"
       id="perspective2824" />
  </defs>
  <sodipodi:namedview
     id="base"
     pagecolor="#ffffff"
     bordercolor="#666666"
     borderopacity="1.0"
     inkscape:pageopacity="0.0"
     inkscape:pageshadow="2"
     inkscape:zoom="5.5"
     inkscape:cx="28.284036"
     inkscape:cy="26.114268"
     inkscape:current-layer="layer1"
     showgrid="true"
     inkscape:document-units="px"
     inkscape:grid-bbox="true"
     inkscape:window-width="1024"
     inkscape:window-height="712"
     inkscape:window-x="-4"
     inkscape:window-y="-4"
     inkscape:window-maximized="1" />
  <metadata
     id="metadata2821">
    <rdf:RDF>
      <cc:Work
         rdf:about="">
        <dc:format>image/svg+xml</dc:format>
        <dc:type
           rdf:resource="http://purl.org/dc/dcmitype/StillImage" />
        <dc:title></dc:title>
      </cc:Work>
    </rdf:RDF>
  </metadata>
  <g
     id="layer1"
     inkscape:label="Layer 1"
     inkscape:groupmode="layer">
    <rect
       style="opacity:1;fill:#000000;fill-opacity:1;stroke:#000000;stroke-width:0;stroke-miterlimit:4;stroke-opacity:0.68627450999999995;stroke-dasharray:none"
       id="rect2841"
       width="63.81818"
       height="67.63636"
       x="0.18181817"
       y="-3.2727273"
       rx="0"
       ry="67.63636" />
    <path
       sodipodi:type="arc"
       style="opacity:1;fill:#ffffff;fill-opacity:1;stroke:#000000;stroke-width:0;stroke-miterlimit:4;stroke-opacity:0.68627450999999995;stroke-dasharray:none"
       id="path3617"
       sodipodi:cx="0.18181819"
       sodipodi:cy="38.18182"
       sodipodi:rx="28.181818"
       sodipodi:ry="28.181818"
       d="m 28.363636,38.18182 a 28.181818,28.181818 0 1 1 -56.363636,0 28.181818,28.181818 0 1 1 56.363636,0 z"
       transform="matrix(1.1225806,0,0,1.1225806,32.159531,-10.86217)" />
    <path
       transform="matrix(1.0645161,0,0,1.0645161,32.351906,-8.645161)"
       d="m 28.363636,38.18182 a 28.181818,28.181818 0 1 1 -56.363636,0 28.181818,28.181818 0 1 1 56.363636,0 z"
       sodipodi:ry="28.181818"
       sodipodi:rx="28.181818"
       sodipodi:cy="38.18182"
       sodipodi:cx="0.18181819"
       id="path3634"
       style="fill:#4d4d4d;fill-opacity:1;stroke:#000000;stroke-width:0;stroke-miterlimit:4;stroke-opacity:0.68627450999999995;stroke-dasharray:none"
       sodipodi:type="arc" />
    <path
       style="fill:none;stroke:#000000;stroke-width:1px;stroke-linecap:butt;stroke-linejoin:miter;stroke-opacity:1"
       d="M -40.181818,5.4545455 -40.363636,56"
       id="path3636"
       inkscape:connector-type="polyline" />
    <path
       style="fill:none;stroke:#000000;stroke-width:1px;stroke-linecap:butt;stroke-linejoin:miter;stroke-opacity:1"
       d="M -44.909091,56.181818 -4.9090909,29.636364"
       id="path3638"
       inkscape:connector-type="polyline" />
    <path
       style="fill:none;stroke:#000000;stroke-width:1.03908622px;stroke-linecap:butt;stroke-linejoin:miter;stroke-opacity:1"
       d="M -47.071366,11.837725 -9.6559068,39.61682"
       id="path3640"
       inkscape:connector-type="polyline" />
    <path
       style="fill:#00ff00;fill-opacity:1;stroke:#000000;stroke-width:0;stroke-miterlimit:4;stroke-opacity:0.68627450999999995;stroke-dasharray:none"
       d="m 33.204545,10.446023 c -0.01961,0.02355 -4.739579,6.367752 -10.5,14.125 l -10.46875,14.125 5.96875,0.125 c 3.289158,0.07277 12.269072,0.140187 19.9375,0.15625 7.668432,0.01606 13.9375,-0.04922 13.9375,-0.125 0,-0.153216 -18.81844,-28.47423 -18.875,-28.40625 z m -20.84375,31 0,5.46875 39.625,0 0,-5.46875 -39.625,0 z"
       id="path3642" />
    <rect
       style="fill:#00ff00;fill-opacity:1;stroke:#000000;stroke-width:0;stroke-miterlimit:4;stroke-opacity:0.68627451;stroke-dasharray:none"
       id="rect3644"
       width="32.363636"
       height="32.363636"
       x="-35.818184"
       y="70.909088"
       ry="0" />
    <path
       style="fill:#00ffff;fill-opacity:1;stroke:#000000;stroke-width:0;stroke-miterlimit:4;stroke-opacity:0.68627451;stroke-dasharray:none"
       d="m -41.451704,65.266583 0,32.361258 7.453092,0 0,-32.361258 -7.453092,0 z m 16.333886,0 0,32.361258 6.751341,0 0,-32.361258 -6.751341,0 z"
       id="rect3646" />
    <path
       id="path3651"
       d="m -67.5562,83.910167 c 0.01862,-8.889407 0.102856,-19.282173 0.18721,-23.095036 l 0.153363,-6.932476 16.349771,12.141099 c 8.992373,6.677605 16.372109,12.159695 16.399409,12.182423 0.0788,0.06557 -32.786267,21.866553 -32.963878,21.866553 -0.08785,0 -0.144493,-7.273155 -0.125879,-16.162563 z"
       style="fill:#00ffff;fill-opacity:1;stroke:#000000;stroke-width:0;stroke-miterlimit:4;stroke-opacity:0.68627451;stroke-dasharray:none" />
  </g>
</svg>
