<?xml version="1.0" encoding="UTF-8" standalone="no"?>
<!-- Created with Inkscape (http://www.inkscape.org/) -->

<svg
   xmlns:dc="http://purl.org/dc/elements/1.1/"
   xmlns:cc="http://creativecommons.org/ns#"
   xmlns:rdf="http://www.w3.org/1999/02/22-rdf-syntax-ns#"
   xmlns:svg="http://www.w3.org/2000/svg"
   xmlns="http://www.w3.org/2000/svg"
   xmlns:sodipodi="http://sodipodi.sourceforge.net/DTD/sodipodi-0.dtd"
   xmlns:inkscape="http://www.inkscape.org/namespaces/inkscape"
   width="48px"
   height="48px"
   id="svg2816"
   version="1.1"
   inkscape:version="0.47 r22583"
   sodipodi:docname="Restart down.png">
  <defs
     id="defs2818">
    <inkscape:perspective
       sodipodi:type="inkscape:persp3d"
       inkscape:vp_x="0 : 24 : 1"
       inkscape:vp_y="0 : 1000 : 0"
       inkscape:vp_z="48 : 24 : 1"
       inkscape:persp3d-origin="24 : 16 : 1"
       id="perspective2824" />
  </defs>
  <sodipodi:namedview
     id="base"
     pagecolor="#ffffff"
     bordercolor="#666666"
     borderopacity="1.0"
     inkscape:pageopacity="0.0"
     inkscape:pageshadow="2"
     inkscape:zoom="7"
     inkscape:cx="51.178571"
     inkscape:cy="23.705382"
     inkscape:current-layer="layer1"
     showgrid="true"
     inkscape:grid-bbox="true"
     inkscape:document-units="px"
     inkscape:window-width="1024"
     inkscape:window-height="712"
     inkscape:window-x="-4"
     inkscape:window-y="-4"
     inkscape:window-maximized="1" />
  <metadata
     id="metadata2821">
    <rdf:RDF>
      <cc:Work
         rdf:about="">
        <dc:format>image/svg+xml</dc:format>
        <dc:type
           rdf:resource="http://purl.org/dc/dcmitype/StillImage" />
        <dc:title></dc:title>
      </cc:Work>
    </rdf:RDF>
  </metadata>
  <g
     id="layer1"
     inkscape:label="Layer 1"
     inkscape:groupmode="layer">
    <rect
       style="opacity:1;fill:#164316;fill-opacity:1;stroke:#000000;stroke-width:0;stroke-miterlimit:4;stroke-opacity:0.68627450999999995;stroke-dasharray:none"
       id="rect2826"
       width="61"
       height="56.714287"
       x="-5.4285712"
       y="-3.9999998" />
    <path
       style="fill:#cccccc;fill-opacity:1;stroke:#000000;stroke-width:0;stroke-miterlimit:4;stroke-opacity:0.68627451;stroke-dasharray:none"
       d="m -33.428572,-14.558036 0,21.125001 3.40625,0 0,-21.125001 -3.40625,0 z m 5.6875,4.375001 0,2.03125 c 4.653764,1.651126 8,6.092637 8,11.3125 0,6.627417 -5.372583,12 -12,12 -6.627417,0 -12,-5.372583 -12,-12 0,-5.279589 3.418931,-9.769832 8.15625,-11.375 l 0,-1.90625 c -5.69844,1.745067 -9.843749,7.069332 -9.843749,13.34375 0,7.692538 6.213711,13.9375 13.906249,13.9375 7.692538,0 13.9375,-6.244962 13.9375,-13.9375 0,-6.384172 -4.295917,-11.758417 -10.15625,-13.40625 z"
       id="path2828" />
    <path
       style="fill:#cccccc;fill-opacity:1;stroke:#000000;stroke-width:0;stroke-miterlimit:4;stroke-opacity:0.68627451;stroke-dasharray:none"
       d="m 21.723215,6.4374997 0,6.7500013 c 0.577605,-0.10142 1.17458,-0.1875 1.78125,-0.1875 0.705149,0 1.397575,0.08269 2.0625,0.21875 l 0,-6.7812513 -3.84375,0 z m -10.21875,3.500001 -1.281251,1.3125003 5.437501,5.4375 c 0.39453,-0.47386 0.808303,-0.916913 1.28125,-1.3125 l -5.4375,-5.4375003 z m 24.53125,0 -5.6875,5.7187503 c 0.45699,0.41355 0.87393,0.854395 1.25,1.34375 l 5.75,-5.75 -1.3125,-1.3125003 z M 6.566964,21.562501 l 0,3.875 6.968751,0 c -0.157927,-0.713708 -0.25,-1.457533 -0.25,-2.21875 0,-0.561968 0.06895,-1.118946 0.15625,-1.65625 l -6.875001,0 z m 27.000001,0 c 0.0873,0.537304 0.15625,1.094282 0.15625,1.65625 0,0.761217 -0.09207,1.505042 -0.25,2.21875 l 7.25,0 0,-3.875 -7.15625,0 z m -2.21875,8.1875 c -0.399491,0.479819 -0.832681,0.913009 -1.3125,1.3125 l 6,6 1.28125,-1.3125 -5.96875,-6 z m -15.40625,0.28125 -5.718751,5.71875 1.312501,1.3125 5.75,-5.75 c -0.495508,-0.380799 -0.926039,-0.817558 -1.34375,-1.28125 z m 9.625,3.1875 c -0.664925,0.136063 -1.357351,0.21875 -2.0625,0.21875 -0.60667,0 -1.203645,-0.08608 -1.78125,-0.1875 l 0,7.3125 3.84375,0 0,-7.34375 z"
       id="rect3614" />
  </g>
</svg>
